# Blender 4.3.2
# www.blender.org
mtllib gate.mtl
o Left
v -0.025000 0.750000 -0.750000
v -0.025000 0.750000 0.750000
v -0.025000 1.000000 -0.750000
v -0.025000 1.000000 0.750000
v 0.025000 0.750000 -0.750000
v 0.025000 0.750000 0.750000
v 0.025000 1.000000 -0.750000
v 0.025000 1.000000 0.750000
vn -1.0000 -0.0000 -0.0000
vn -0.0000 1.0000 -0.0000
vn 1.0000 -0.0000 -0.0000
vn -0.0000 -1.0000 -0.0000
vn -0.0000 -0.0000 -1.0000
vn -0.0000 -0.0000 1.0000
vt 0.125000 0.125000
vt 0.125000 0.875000
vt 0.000000 0.875000
vt 0.000000 0.125000
vt 0.500000 0.500000
vt 1.000000 0.125000
vt 1.000000 0.875000
vt 0.875000 0.875000
vt 0.875000 0.125000
s 0
usemtl Decal
f 1/1/1 2/2/1 4/3/1 3/4/1
f 3/5/2 4/5/2 8/5/2 7/5/2
f 7/6/3 8/7/3 6/8/3 5/9/3
f 5/5/4 6/5/4 2/5/4 1/5/4
f 3/5/5 7/5/5 5/5/5 1/5/5
f 8/5/6 4/5/6 2/5/6 6/5/6
o Right
v -0.025000 -1.000000 -0.750000
v -0.025000 -1.000000 0.750000
v -0.025000 -0.750000 -0.750000
v -0.025000 -0.750000 0.750000
v 0.025000 -1.000000 -0.750000
v 0.025000 -1.000000 0.750000
v 0.025000 -0.750000 -0.750000
v 0.025000 -0.750000 0.750000
vn -1.0000 -0.0000 -0.0000
vn -0.0000 1.0000 -0.0000
vn 1.0000 -0.0000 -0.0000
vn -0.0000 -1.0000 -0.0000
vn -0.0000 -0.0000 -1.0000
vn -0.0000 -0.0000 1.0000
vt 1.000000 0.125000
vt 1.000000 0.875000
vt 0.875000 0.875000
vt 0.875000 0.125000
vt 0.500000 0.500000
vt 0.125000 0.125000
vt 0.125000 0.875000
vt 0.000000 0.875000
vt 0.000000 0.125000
s 0
usemtl Decal
f 9/10/7 10/11/7 12/12/7 11/13/7
f 11/14/8 12/14/8 16/14/8 15/14/8
f 15/15/9 16/16/9 14/17/9 13/18/9
f 13/14/10 14/14/10 10/14/10 9/14/10
f 11/14/11 15/14/11 13/14/11 9/14/11
f 16/14/12 12/14/12 10/14/12 14/14/12
o Bottom
v -0.025000 1.000000 -1.000000
v -0.025000 -1.000000 -1.000000
v -0.025000 1.000000 -0.750000
v -0.025000 -1.000000 -0.750000
v 0.025000 1.000000 -1.000000
v 0.025000 -1.000000 -1.000000
v 0.025000 1.000000 -0.750000
v 0.025000 -1.000000 -0.750000
vn -1.0000 -0.0000 -0.0000
vn -0.0000 -0.0000 1.0000
vn 1.0000 -0.0000 -0.0000
vn -0.0000 -0.0000 -1.0000
vn -0.0000 1.0000 -0.0000
vn -0.0000 -1.0000 -0.0000
vt 0.000000 0.000000
vt 1.000000 0.000000
vt 1.000000 0.125000
vt 0.000000 0.125000
vt 0.500000 0.500000
vt 1.000000 0.125000
vt 0.000000 0.125000
vt 0.000000 0.000000
vt 1.000000 0.000000
s 0
usemtl Decal
f 17/19/13 18/20/13 20/21/13 19/22/13
f 19/23/14 20/23/14 24/23/14 23/23/14
f 23/24/15 24/25/15 22/26/15 21/27/15
f 21/23/16 22/23/16 18/23/16 17/23/16
f 19/23/17 23/23/17 21/23/17 17/23/17
f 24/23/18 20/23/18 18/23/18 22/23/18
o Top
v -0.025000 -1.000000 1.000000
v -0.025000 1.000000 1.000000
v -0.025000 -1.000000 0.750000
v -0.025000 1.000000 0.750000
v 0.025000 -1.000000 1.000000
v 0.025000 1.000000 1.000000
v 0.025000 -1.000000 0.750000
v 0.025000 1.000000 0.750000
vn -1.0000 -0.0000 -0.0000
vn -0.0000 -0.0000 -1.0000
vn 1.0000 -0.0000 -0.0000
vn -0.0000 -0.0000 1.0000
vn -0.0000 -1.0000 -0.0000
vn -0.0000 1.0000 -0.0000
vt 1.000000 1.000000
vt 0.000000 1.000000
vt 0.000000 0.875000
vt 1.000000 0.875000
vt 0.500000 0.500000
vt 0.000000 0.875000
vt 1.000000 0.875000
vt 1.000000 1.000000
vt 0.000000 1.000000
s 0
usemtl Decal
f 25/28/19 26/29/19 28/30/19 27/31/19
f 27/32/20 28/32/20 32/32/20 31/32/20
f 31/33/21 32/34/21 30/35/21 29/36/21
f 29/32/22 30/32/22 26/32/22 25/32/22
f 27/32/23 31/32/23 29/32/23 25/32/23
f 32/32/24 28/32/24 26/32/24 30/32/24
